<svg width="76" height="76" viewBox="0 0 76 76" fill="none" xmlns="http://www.w3.org/2000/svg">
<path fill-rule="evenodd" clip-rule="evenodd" d="M22.5398 0.725C26.5386 0.540909 27.8136 0.5 38 0.5C48.1864 0.5 49.4614 0.544318 53.4568 0.725C57.4523 0.905682 60.1795 1.54318 62.5659 2.46705C65.0648 3.41136 67.3318 4.8875 69.2068 6.79659C71.1159 8.66818 72.5886 10.9318 73.5295 13.4341C74.4568 15.8205 75.0909 18.5477 75.275 22.5364C75.4591 26.542 75.5 27.817 75.5 38C75.5 48.1864 75.4557 49.4614 75.275 53.4602C75.0943 57.4489 74.4568 60.1761 73.5295 62.5625C72.5886 65.0651 71.1135 67.3325 69.2068 69.2068C67.3318 71.1159 65.0648 72.5886 62.5659 73.5295C60.1795 74.4568 57.4523 75.0909 53.4636 75.275C49.4614 75.4591 48.1864 75.5 38 75.5C27.8136 75.5 26.5386 75.4557 22.5398 75.275C18.5511 75.0943 15.8239 74.4568 13.4375 73.5295C10.935 72.5885 8.66757 71.1134 6.79318 69.2068C4.88539 67.3341 3.40903 65.0678 2.46705 62.5659C1.54318 60.1795 0.909091 57.4523 0.725 53.4636C0.540909 49.458 0.5 48.183 0.5 38C0.5 27.8136 0.544318 26.5386 0.725 22.5432C0.905682 18.5477 1.54318 15.8205 2.46705 13.4341C3.41042 10.9321 4.88791 8.66584 6.79659 6.79318C8.66832 4.8858 10.9334 3.40947 13.4341 2.46705C15.8205 1.54318 18.5477 0.909091 22.5364 0.725H22.5398ZM53.1534 7.475C49.1989 7.29432 48.0125 7.25682 38 7.25682C27.9875 7.25682 26.8011 7.29432 22.8466 7.475C19.1886 7.64205 17.2045 8.25227 15.8818 8.76705C14.133 9.44886 12.8818 10.2568 11.5693 11.5693C10.3252 12.7797 9.36766 14.2532 8.76705 15.8818C8.25227 17.2045 7.64205 19.1886 7.475 22.8466C7.29432 26.8011 7.25682 27.9875 7.25682 38C7.25682 48.0125 7.29432 49.1989 7.475 53.1534C7.64205 56.8114 8.25227 58.7955 8.76705 60.1182C9.36705 61.7443 10.325 63.2205 11.5693 64.4307C12.7795 65.675 14.2557 66.633 15.8818 67.233C17.2045 67.7477 19.1886 68.358 22.8466 68.525C26.8011 68.7057 27.9841 68.7432 38 68.7432C48.0159 68.7432 49.1989 68.7057 53.1534 68.525C56.8114 68.358 58.7955 67.7477 60.1182 67.233C61.8671 66.5511 63.1182 65.7432 64.4307 64.4307C65.675 63.2205 66.633 61.7443 67.233 60.1182C67.7477 58.7955 68.358 56.8114 68.525 53.1534C68.7057 49.1989 68.7432 48.0125 68.7432 38C68.7432 27.9875 68.7057 26.8011 68.525 22.8466C68.358 19.1886 67.7477 17.2045 67.233 15.8818C66.5511 14.133 65.7432 12.8818 64.4307 11.5693C63.2202 10.3252 61.7467 9.36776 60.1182 8.76705C58.7955 8.25227 56.8114 7.64205 53.1534 7.475ZM33.2102 49.5602C35.8852 50.6737 38.8638 50.824 41.6373 49.9854C44.4107 49.1468 46.807 47.3713 48.4169 44.9622C50.0267 42.5531 50.7502 39.6598 50.4638 36.7765C50.1774 33.8932 48.8989 31.1988 46.8466 29.1534C45.5383 27.8459 43.9564 26.8448 42.2148 26.2221C40.4731 25.5994 38.6151 25.3705 36.7744 25.5521C34.9337 25.7337 33.1562 26.3211 31.5698 27.272C29.9834 28.223 28.6275 29.5139 27.5999 31.0518C26.5723 32.5896 25.8984 34.3362 25.6268 36.1658C25.3551 37.9953 25.4926 39.8624 26.0291 41.6324C26.5657 43.4025 27.488 45.0316 28.7297 46.4025C29.9715 47.7733 31.5017 48.8518 33.2102 49.5602ZM24.3705 24.3705C26.1603 22.5806 28.2852 21.1608 30.6237 20.1921C32.9623 19.2235 35.4688 18.7249 38 18.7249C40.5312 18.7249 43.0377 19.2235 45.3763 20.1921C47.7148 21.1608 49.8397 22.5806 51.6295 24.3705C53.4194 26.1603 54.8392 28.2852 55.8079 30.6237C56.7765 32.9623 57.2751 35.4688 57.2751 38C57.2751 40.5312 56.7765 43.0377 55.8079 45.3763C54.8392 47.7148 53.4194 49.8397 51.6295 51.6295C48.0148 55.2443 43.1121 57.2751 38 57.2751C32.8879 57.2751 27.9852 55.2443 24.3705 51.6295C20.7557 48.0148 18.7249 43.1121 18.7249 38C18.7249 32.8879 20.7557 27.9852 24.3705 24.3705ZM61.55 21.5955C61.9935 21.1771 62.3486 20.6739 62.5942 20.1158C62.8398 19.5577 62.9709 18.956 62.9798 18.3464C62.9887 17.7367 62.8752 17.1314 62.646 16.5664C62.4167 16.0014 62.0765 15.4881 61.6453 15.057C61.2142 14.6258 60.7009 14.2855 60.1359 14.0563C59.5709 13.8271 58.9656 13.7136 58.3559 13.7224C57.7462 13.7313 57.1445 13.8625 56.5865 14.1081C56.0284 14.3537 55.5252 14.7087 55.1068 15.1523C54.2931 16.0149 53.8476 17.1606 53.8649 18.3464C53.8822 19.5321 54.3609 20.6644 55.1994 21.5029C56.0379 22.3414 57.1702 22.8201 58.3559 22.8374C59.5416 22.8547 60.6874 22.4092 61.55 21.5955Z" fill="white"/>
</svg>
