<svg width="100" height="100" viewBox="0 0 100 100" fill="none" xmlns="http://www.w3.org/2000/svg">
<path fill-rule="evenodd" clip-rule="evenodd" d="M12.5 18.7659C12.5 17.1041 13.1602 15.5103 14.3352 14.3353C15.5103 13.1602 17.1041 12.5 18.7659 12.5H81.2273C82.0508 12.4987 82.8665 12.6598 83.6277 12.9741C84.389 13.2884 85.0807 13.7498 85.6633 14.3318C86.246 14.9139 86.7081 15.6051 87.0233 16.366C87.3385 17.1268 87.5004 17.9424 87.5 18.7659V81.2273C87.5009 82.051 87.3394 82.8668 87.0247 83.628C86.71 84.3892 86.2483 85.0809 85.666 85.6636C85.0837 86.2462 84.3922 86.7082 83.6312 87.0234C82.8701 87.3385 82.0544 87.5005 81.2307 87.5H18.7659C17.9428 87.5 17.1277 87.3378 16.3673 87.0227C15.6068 86.7076 14.9159 86.2458 14.334 85.6636C13.7521 85.0814 13.2907 84.3902 12.976 83.6296C12.6613 82.869 12.4996 82.0538 12.5 81.2307V18.7659ZM42.1864 41.0955H52.342V46.1955C53.8079 43.2636 57.5579 40.625 63.1932 40.625C73.9966 40.625 76.5568 46.4648 76.5568 57.1796V77.0273H65.6239V59.6205C65.6239 53.5182 64.1579 50.075 60.4352 50.075C55.2705 50.075 53.1227 53.7875 53.1227 59.6205V77.0273H42.1864V41.0955ZM23.4364 76.5602H34.3727V40.625H23.4364V76.5568V76.5602ZM35.9375 28.9046C35.9581 29.8409 35.7915 30.772 35.4474 31.6431C35.1033 32.5142 34.5887 33.3079 33.9337 33.9774C33.2788 34.6469 32.4967 35.1789 31.6334 35.5421C30.77 35.9053 29.8429 36.0923 28.9062 36.0923C27.9696 36.0923 27.0425 35.9053 26.1791 35.5421C25.3158 35.1789 24.5337 34.6469 23.8788 33.9774C23.2238 33.3079 22.7092 32.5142 22.3651 31.6431C22.021 30.772 21.8544 29.8409 21.875 28.9046C21.9155 27.0666 22.674 25.3175 23.9882 24.0319C25.3025 22.7463 27.0678 22.0264 28.9062 22.0264C30.7447 22.0264 32.51 22.7463 33.8243 24.0319C35.1385 25.3175 35.897 27.0666 35.9375 28.9046Z" fill="white"/>
</svg>
